<svg width="30" height="30" viewBox="0 0 30 30" fill="none" xmlns="http://www.w3.org/2000/svg">
<path d="M27.3398 1.13208H2.66249C1.81723 1.13208 1.13202 1.81729 1.13202 2.66255V27.3399C1.13202 28.1851 1.81723 28.8704 2.66249 28.8704H27.3398C28.1851 28.8704 28.8703 28.1851 28.8703 27.3399V2.66255C28.8703 1.81729 28.1851 1.13208 27.3398 1.13208Z" fill="#3D5A98"/>
<path d="M20.2688 28.868V18.1266H23.8735L24.4125 13.9407H20.2688V11.2688C20.2688 10.0571 20.6063 9.22974 22.343 9.22974H24.5602V5.47974C23.4865 5.36784 22.4076 5.31464 21.3281 5.32036C18.136 5.32036 15.9375 7.26568 15.9375 10.854V13.9407H12.3328V18.1266H15.9375V28.868H20.2688Z" fill="white"/>
</svg>
