<svg width="100" height="100" viewBox="0 0 100 100" fill="none" xmlns="http://www.w3.org/2000/svg">
<rect width="100" height="100" fill="#FFC107"/>
<path d="M37.8239 32.0909H46.142V56.2273C46.1307 58.4886 45.5909 60.4659 44.5227 62.1591C43.4545 63.8409 41.9773 65.1477 40.0909 66.0795C38.2159 67.0114 36.0455 67.4773 33.5795 67.4773C31.3977 67.4773 29.4148 67.0966 27.6307 66.3352C25.858 65.5739 24.4432 64.392 23.3864 62.7898C22.3409 61.1875 21.8239 59.1364 21.8352 56.6364H30.2386C30.2727 57.5341 30.4432 58.3011 30.75 58.9375C31.0682 59.5625 31.5057 60.0341 32.0625 60.3523C32.6193 60.6705 33.2841 60.8295 34.0568 60.8295C34.8636 60.8295 35.5455 60.6591 36.1023 60.3182C36.6591 59.9659 37.0795 59.4489 37.3636 58.767C37.6591 58.0852 37.8125 57.2386 37.8239 56.2273V32.0909ZM70.3082 42.5568C70.1946 41.3068 69.6889 40.3352 68.7912 39.642C67.9048 38.9375 66.6378 38.5852 64.9901 38.5852C63.8991 38.5852 62.9901 38.7273 62.2628 39.0114C61.5355 39.2955 60.9901 39.6875 60.6264 40.1875C60.2628 40.6761 60.0753 41.2386 60.0639 41.875C60.0412 42.3977 60.1435 42.858 60.3707 43.2557C60.6094 43.6534 60.9503 44.0057 61.3935 44.3125C61.848 44.608 62.3935 44.8693 63.0298 45.0966C63.6662 45.3239 64.3821 45.5227 65.1776 45.6932L68.1776 46.375C69.9048 46.75 71.4276 47.25 72.7457 47.875C74.0753 48.5 75.1889 49.2443 76.0866 50.108C76.9957 50.9716 77.6832 51.9659 78.1491 53.0909C78.6151 54.2159 78.8537 55.4773 78.8651 56.875C78.8537 59.0795 78.2969 60.9716 77.1946 62.5511C76.0923 64.1307 74.5071 65.3409 72.4389 66.1818C70.3821 67.0227 67.8991 67.4432 64.9901 67.4432C62.0696 67.4432 59.5241 67.0057 57.3537 66.1307C55.1832 65.2557 53.4957 63.9261 52.2912 62.142C51.0866 60.358 50.4673 58.1023 50.4332 55.375H58.5128C58.581 56.5 58.8821 57.4375 59.4162 58.1875C59.9503 58.9375 60.6832 59.5057 61.6151 59.892C62.5582 60.2784 63.6491 60.4716 64.8878 60.4716C66.0241 60.4716 66.9901 60.3182 67.7855 60.0114C68.5923 59.7045 69.2116 59.2784 69.6435 58.733C70.0753 58.1875 70.2969 57.5625 70.3082 56.858C70.2969 56.1989 70.0923 55.6364 69.6946 55.1705C69.2969 54.6932 68.6832 54.2841 67.8537 53.9432C67.0355 53.5909 65.9901 53.267 64.7173 52.9716L61.0696 52.1193C58.0469 51.4261 55.6662 50.3068 53.9276 48.7614C52.1889 47.2045 51.3253 45.1023 51.3366 42.4545C51.3253 40.2955 51.9048 38.4034 53.0753 36.7784C54.2457 35.1534 55.8651 33.8864 57.9332 32.9773C60.0014 32.0682 62.3594 31.6136 65.0071 31.6136C67.7116 31.6136 70.0582 32.0739 72.0469 32.9943C74.0469 33.9034 75.598 35.1818 76.7003 36.8295C77.8026 38.4773 78.3651 40.3864 78.3878 42.5568H70.3082Z" fill="black"/>
</svg>
