<svg width="25" height="30" viewBox="0 0 25 30" fill="none" xmlns="http://www.w3.org/2000/svg">
<path d="M3.57143 1.875C1.60156 1.875 0 3.55664 0 5.625V24.375C0 26.4434 1.60156 28.125 3.57143 28.125H21.4286C23.3984 28.125 25 26.4434 25 24.375V5.625C25 3.55664 23.3984 1.875 21.4286 1.875H3.57143ZM20.1507 6.79688L14.3583 13.7461L21.1719 23.2031H15.8371L11.6629 17.4668L6.88058 23.2031H4.22991L10.4241 15.7676L3.88951 6.79688H9.35826L13.1362 12.041L17.5 6.79688H20.1507ZM18.0413 21.5391L8.56027 8.37305H6.98103L16.5681 21.5391H18.0357H18.0413Z" fill="black"/>
</svg>
