<svg width="35" height="46" viewBox="0 0 35 46" fill="none" xmlns="http://www.w3.org/2000/svg">
<path d="M31.0498 13.9955C30.8901 13.2046 30.5749 12.4828 30.1361 11.9023C29.6972 11.3218 29.15 10.9031 28.5493 10.688C26.3438 9.90601 17.5 9.90601 17.5 9.90601C17.5 9.90601 8.65616 9.90601 6.45068 10.688C5.84993 10.9031 5.30273 11.3218 4.86387 11.9023C4.42502 12.4828 4.10991 13.2046 3.95012 13.9955C3.35901 16.9127 3.35901 23 3.35901 23C3.35901 23 3.35901 29.0874 3.95012 32.0052C4.10991 32.7961 4.42502 33.5179 4.86387 34.0984C5.30273 34.6789 5.84993 35.0976 6.45068 35.3127C8.65616 36.0941 17.5 36.0941 17.5 36.0941C17.5 36.0941 26.3438 36.0941 28.5493 35.3127C29.15 35.0976 29.6972 34.6789 30.1361 34.0984C30.5749 33.5179 30.8901 32.7961 31.0498 32.0052C31.641 29.0874 31.641 23 31.641 23C31.641 23 31.641 16.9127 31.0498 13.9955Z" fill="#EA5A47"/>
<path d="M14.6077 28.5264L21.9995 23L14.6077 17.4736V28.5264Z" fill="white"/>
<path d="M31.0498 13.9955C30.8901 13.2046 30.5749 12.4828 30.1361 11.9023C29.6972 11.3218 29.15 10.9031 28.5493 10.688C26.3438 9.90601 17.5 9.90601 17.5 9.90601C17.5 9.90601 8.65616 9.90601 6.45068 10.688C5.84993 10.9031 5.30273 11.3218 4.86387 11.9023C4.42502 12.4828 4.10991 13.2046 3.95012 13.9955C3.35901 16.9127 3.35901 23 3.35901 23C3.35901 23 3.35901 29.0874 3.95012 32.0052C4.10991 32.7961 4.42502 33.5179 4.86387 34.0984C5.30273 34.6789 5.84993 35.0976 6.45068 35.3127C8.65616 36.0941 17.5 36.0941 17.5 36.0941C17.5 36.0941 26.3438 36.0941 28.5493 35.3127C29.15 35.0976 29.6972 34.6789 30.1361 34.0984C30.5749 33.5179 30.8901 32.7961 31.0498 32.0052C31.641 29.0874 31.641 23 31.641 23C31.641 23 31.641 16.9127 31.0498 13.9955Z" stroke="black" stroke-width="2" stroke-miterlimit="10"/>
<path d="M14.6076 28.5264L21.9994 23L14.6076 17.4736V28.5264Z" stroke="black" stroke-width="2" stroke-miterlimit="10" stroke-linecap="round" stroke-linejoin="round"/>
</svg>
